<svg xmlns="http://www.w3.org/2000/svg"><symbol id="mecha-stilts" viewBox="0 0 128 128"><path fill="#fff" d="M64.5 1L119 32.4v62.9l-54.5 31.4-54.4-31.4V32.4L64.5 1z"/><path fill="#ff9500" d="M34.7 87.1a1 1 0 0 1-1-1.1V73.5H20a1 1 0 0 1 0-2h7.8v-6.7a1 1 0 0 1 1-1.1h4a32.9 32.9 0 0 1 31.6-25.1c.1-.1.2-.1.5 0a32.6 32.6 0 0 1 31.3 25.1h4.1a1 1 0 0 1 1 1.1v6.7h7.8a1 1 0 0 1 0 2H95.4V86a1 1 0 0 1-1 1.1zm-4.9-21.3v5.7h69.4v-5.7zm32.7-25A30.6 30.6 0 0 0 35 63.7h11.1zM35.7 73.5V85h27.8V73.5zm27.8-30.6L48.6 63.7h14.9zm2.1-2.2v23h28.5a30.7 30.7 0 0 0-28.5-23zm0 32.8V85h4.6V73.5zm6.7 0V85h21.1V73.5z"/></symbol><symbol id="super-domes" viewBox="0 0 128 128"><path fill="#fff" d="M65 .2l55 31.7v63.5l-55 31.7-54.9-31.7V31.9L65 .2z"/><path fill="#ff9500" d="M33.2 87.1a1.1 1.1 0 0 1-1.1-1.1 1.1 1.1 0 0 1 1.1-1h5.2v-6.6h-5.2a1 1 0 0 1-1.1-1V56.9a1 1 0 0 1 1.1-1.1H40c.6-14.8 11.6-22.9 25-22.9S89.5 41 90.1 55.8h6.8a1 1 0 0 1 1.1 1.1v20.5a1 1 0 0 1-1.1 1h-5.2V85h5.2a1.1 1.1 0 0 1 1.1 1 1.1 1.1 0 0 1-1.1 1.1zm1-29.2v18.4h61.7V57.9zm6.2 20.5V85h6.7v-6.6zm1.7-22.6H88C87.4 42.4 77.2 35 65 35s-22.4 7.4-22.9 20.8zm7.1 22.6V85h10.4v-6.6zm12.5 0V85h6.7v-6.6zM90 71.3H64.5a1 1 0 0 1 0-2H90a1 1 0 0 1 0 2zm-19.5 7.1V85h10.4v-6.6zm12.5 0V85h6.6v-6.6z"/></symbol><symbol id="space-bubble" viewBox="0 0 128 128"><path fill="#fff" d="M63.9.5l55.4 32v64l-55.4 32-55.4-32v-64L63.9.5z"/><path fill="#ff9500" d="M32.6 90.5L30.2 87a1.2 1.2 0 0 1 .1-1.3L39 75.4h-4.3a.9.9 0 0 1-1-1v-7.6a.9.9 0 0 1 1-1h6.1a31.6 31.6 0 0 1-1.2-8 24.9 24.9 0 0 1 49.8 0 27.7 27.7 0 0 1-1.2 8h6.1a1 1 0 0 1 1.1 1v7.6a1 1 0 0 1-1.1 1h-5.4l8.7 10.3a1.2 1.2 0 0 1 0 1.3l-2.5 3.5a1.1 1.1 0 0 1-1.3.3l-5.1-2.7H39l-5 2.7a1.2 1.2 0 0 1-1.4-.3zm16-15.1h-7l-9.2 11 1.5 2.1 17.7-9.4zm-12.8-7.5v5.4h57.5v-5.4zm7.2-2.1h43a27.3 27.3 0 0 0 1.3-8 22.8 22.8 0 0 0-45.6 0 21.7 21.7 0 0 0 1.3 8zm10.1 15l-10 5.2h14.3zm-1.8-5.4L60.1 86h7.6l8.8-10.6zm23.5 5.4L70.4 86h14.3zm11.4-5.4h-6.9l-3.2 3.7L94 88.5l1.5-2z"/></symbol></svg>